<?xml version="1.0" encoding="utf-8"?>
<!-- Generator: Adobe Illustrator 22.1.0, SVG Export Plug-In . SVG Version: 6.00 Build 0)  -->
<svg version="1.1" xmlns="http://www.w3.org/2000/svg" xmlns:xlink="http://www.w3.org/1999/xlink" x="0px" y="0px"
	 viewBox="0 0 73.7 73.7" enable-background="new 0 0 73.7 73.7" xml:space="preserve">
<g id="_x3C_Guides_x3E__6_">
</g>
<g id="desktop_-_basic">
	<circle fill="#FFFFFF" cx="36.9" cy="36.9" r="36.9"/>
	<g>
		<path fill="#222222" d="M64.2,36.8c0,15.1-12.2,27.3-27.3,27.3c-15.1,0-27.3-12.2-27.3-27.3c0-15.1,12.2-27.3,27.3-27.3
			C52,9.4,64.2,21.7,64.2,36.8"/>
		<path fill="#FFFFFF" d="M36.2,37.9c-0.1,0-0.1,0-0.2,0L22,34v10.5c1.8,0.1,3.7,0.3,5.6,0.8c3.4,0.8,6.3,2.2,8.4,3.8h0.1h0h0.1
			c2.1-1.6,5-3,8.4-3.8c1.9-0.5,3.8-0.7,5.6-0.8V34l-14,3.9C36.3,37.9,36.3,37.9,36.2,37.9"/>
		<path fill="#FF8300" d="M56.7,36.1v-5.8l1.7-0.5l-22.2-6.2L14,29.8L36.2,36l18.9-5.3h0.4v5.4c-0.7,0.2-1.2,0.8-1.2,1.6v3.7h3.6
			v-3.7C57.9,37,57.4,36.3,56.7,36.1"/>
	</g>
</g>
<g id="Layer_3">
</g>
<g id="Layer_4">
</g>
<g id="Layer_5">
</g>
<g id="Layer_6">
</g>
</svg>
